<svg xmlns="http://www.w3.org/2000/svg" xmlns:xlink="http://www.w3.org/1999/xlink" width="118" height="118" viewBox="0 0 118 118"><defs><style>.a{fill:#e6d3f1;}.b{fill:#fff;}.c{filter:url(#a);}</style><filter id="a" x="0" y="0" width="118" height="118" filterUnits="userSpaceOnUse"><feOffset dy="8" input="SourceAlpha"/><feGaussianBlur stdDeviation="7.5" result="b"/><feFlood flood-opacity="0.149"/><feComposite operator="in" in2="b"/><feComposite in="SourceGraphic"/></filter></defs><g transform="translate(-1234.5 -807.5)"><g class="c" transform="matrix(1, 0, 0, 1, 1234.5, 807.5)"><circle class="a" cx="36.5" cy="36.5" r="36.5" transform="translate(22.5 14.5)"/></g><path class="b" d="M23.539,42.288a2.663,2.663,0,0,1-2.077-.985L8.6,25.323a2.663,2.663,0,0,1,0-3.382L21.915,5.961a2.667,2.667,0,0,1,4.1,3.409l-11.9,14.275L25.617,37.92a2.663,2.663,0,0,1-2.077,4.368Z" transform="translate(1317.144 842.51) rotate(90)"/></g></svg>